<svg width="180" height="30" viewBox="0 0 180 30" fill="none" xmlns="http://www.w3.org/2000/svg">
<g clip-path="url(#clip0_54_21)">
<path d="M65.7832 19.9877H65.0089C64.6217 19.9517 64.1993 19.9157 63.8122 19.8437C61.4892 19.4115 59.5533 18.295 58.0046 16.4223C56.7728 14.9457 56.0336 13.217 55.7872 11.2722C55.752 10.8761 55.7168 10.4799 55.6816 10.0837V9.86766C55.6816 9.83165 55.6816 9.75962 55.7168 9.72361C55.752 9.29143 55.752 8.89527 55.8224 8.4631C56.1392 6.26622 57.0895 4.32144 58.6734 2.77282C60.926 0.575945 63.6362 -0.324415 66.7335 0.0717434C69.0917 0.359859 71.0275 1.47631 72.6466 3.24101C72.9634 3.60116 73.2802 4.03333 73.5969 4.42949C72.2946 5.36586 71.0275 6.26622 69.7253 7.2026C69.6901 7.13057 69.6549 7.09455 69.6197 7.02252C68.423 5.18579 66.1704 4.32144 64.1641 4.93369C62.2635 5.4739 61.0668 6.77042 60.6092 8.7152C60.1517 10.696 60.6092 12.4607 62.0875 13.8653C64.1289 15.8461 67.4023 15.666 69.2677 13.5051C69.4437 13.289 69.6197 13.0369 69.8308 12.8208C71.0979 13.7212 72.3298 14.6216 73.5969 15.5219C73.1746 16.1702 72.717 16.7104 72.189 17.2506C70.746 18.6552 69.0213 19.5555 67.0503 19.8797C66.5575 19.9157 66.1704 19.9517 65.7832 19.9877Z" fill="#1C1A1A"/>
<path d="M154.127 26.7947H156.873C156.873 27.0828 156.873 27.3349 156.837 27.587C156.802 27.8391 156.767 28.0552 156.697 28.2353C156.591 28.5234 156.45 28.7755 156.31 28.9916C156.134 29.2077 155.922 29.3877 155.711 29.5318C155.465 29.6759 155.218 29.7839 154.972 29.8559C154.69 29.928 154.409 29.964 154.092 29.964C153.67 29.964 153.283 29.8919 152.966 29.7479C152.614 29.6038 152.332 29.4238 152.086 29.1716C151.839 28.9195 151.663 28.5954 151.523 28.2713C151.382 27.9111 151.312 27.515 151.312 27.0828C151.312 26.6506 151.382 26.2545 151.523 25.8943C151.663 25.5342 151.839 25.2461 152.086 24.994C152.332 24.7419 152.649 24.5618 152.966 24.4177C153.318 24.2737 153.705 24.2017 154.127 24.2017C154.69 24.2017 155.183 24.3097 155.606 24.5618C156.028 24.8139 156.345 25.1741 156.591 25.7143L155.289 26.2905C155.183 26.0024 155.007 25.7863 154.796 25.6422C154.585 25.4982 154.374 25.4622 154.127 25.4622C153.916 25.4622 153.74 25.4982 153.564 25.5702C153.388 25.6422 153.247 25.7503 153.142 25.8943C153.036 26.0384 152.931 26.2185 152.86 26.4346C152.79 26.6506 152.755 26.8667 152.755 27.1188C152.755 27.3349 152.79 27.551 152.86 27.7671C152.931 27.9832 153.001 28.1272 153.142 28.2713C153.283 28.4153 153.423 28.5234 153.564 28.5954C153.74 28.6674 153.951 28.7035 154.162 28.7035C154.303 28.7035 154.444 28.7035 154.55 28.6674C154.69 28.6314 154.796 28.5954 154.902 28.5234C155.007 28.4514 155.078 28.3793 155.148 28.2353C155.218 28.1272 155.254 27.9832 155.289 27.8391H154.162V26.7947H154.127Z" fill="#1C1A1A"/>
<path d="M162.223 29.856H160.498L159.161 27.7672V29.856H157.788V24.3818H159.935C160.217 24.3818 160.498 24.4179 160.709 24.5259C160.921 24.5979 161.132 24.742 161.273 24.886C161.413 25.0301 161.519 25.2102 161.589 25.4263C161.66 25.6423 161.695 25.8584 161.695 26.0745C161.695 26.5067 161.589 26.8308 161.413 27.0829C161.202 27.335 160.921 27.5151 160.533 27.6231L162.223 29.856ZM159.161 26.8308H159.407C159.689 26.8308 159.9 26.7588 160.041 26.6507C160.181 26.5427 160.252 26.3626 160.252 26.1465C160.252 25.9305 160.181 25.7504 160.041 25.6423C159.9 25.5343 159.689 25.4623 159.407 25.4623H159.161V26.8308Z" fill="#1C1A1A"/>
<path d="M162.47 27.1189C162.47 26.7228 162.54 26.3266 162.681 25.9665C162.822 25.6063 163.033 25.3182 163.279 25.0661C163.526 24.814 163.842 24.5979 164.194 24.4539C164.546 24.3098 164.969 24.2378 165.391 24.2378C165.813 24.2378 166.236 24.3098 166.588 24.4539C166.94 24.5979 167.257 24.814 167.538 25.0661C167.784 25.3182 167.996 25.6424 168.136 25.9665C168.277 26.3266 168.348 26.6868 168.348 27.1189C168.348 27.5151 168.277 27.9113 168.136 28.2714C167.996 28.6315 167.784 28.9197 167.538 29.1718C167.292 29.4239 166.975 29.64 166.588 29.784C166.236 29.9281 165.813 30.0001 165.391 30.0001C164.969 30.0001 164.546 29.9281 164.194 29.784C163.842 29.64 163.526 29.4239 163.279 29.1718C163.033 28.9197 162.822 28.5955 162.681 28.2714C162.54 27.9113 162.47 27.5151 162.47 27.1189ZM163.913 27.1189C163.913 27.335 163.948 27.5511 164.018 27.7312C164.089 27.9113 164.194 28.0913 164.335 28.1994C164.476 28.3434 164.617 28.4515 164.828 28.5235C165.004 28.5955 165.215 28.6315 165.391 28.6315C165.602 28.6315 165.778 28.5955 165.954 28.5235C166.13 28.4515 166.306 28.3434 166.447 28.1994C166.588 28.0553 166.693 27.9113 166.764 27.7312C166.834 27.5511 166.869 27.335 166.869 27.1189C166.869 26.9029 166.834 26.6868 166.764 26.5067C166.693 26.3266 166.588 26.1466 166.447 26.0385C166.306 25.8945 166.13 25.7864 165.954 25.7144C165.778 25.6424 165.567 25.6063 165.391 25.6063C165.18 25.6063 165.004 25.6424 164.828 25.7144C164.652 25.7864 164.476 25.8945 164.335 26.0385C164.194 26.1826 164.089 26.3266 164.018 26.5067C163.948 26.7228 163.913 26.9029 163.913 27.1189Z" fill="#1C1A1A"/>
<path d="M170.671 24.3818V27.371C170.671 27.5151 170.671 27.6952 170.671 27.8752C170.671 28.0553 170.706 28.1994 170.776 28.3434C170.847 28.4875 170.917 28.5955 171.058 28.6676C171.199 28.7396 171.375 28.8116 171.586 28.8116C171.832 28.8116 172.008 28.7756 172.114 28.6676C172.254 28.5955 172.325 28.4875 172.395 28.3434C172.466 28.1994 172.501 28.0553 172.501 27.8752C172.501 27.6952 172.536 27.5511 172.536 27.371V24.3818H173.909V27.5511C173.909 28.4155 173.733 29.0277 173.346 29.4239C172.958 29.82 172.395 30.0001 171.586 30.0001C170.811 30.0001 170.213 29.82 169.826 29.4239C169.439 29.0277 169.263 28.4155 169.263 27.5511V24.3818H170.671Z" fill="#1C1A1A"/>
<path d="M176.443 29.856H175.07V24.3818H177.288C177.886 24.3818 178.344 24.5259 178.66 24.85C178.977 25.1742 179.153 25.6063 179.153 26.1826C179.153 26.7588 178.977 27.227 178.66 27.5151C178.344 27.8392 177.886 27.9833 177.288 27.9833H176.478V29.856H176.443ZM176.443 26.9028H176.901C177.393 26.9028 177.675 26.6868 177.675 26.2186C177.675 25.7504 177.429 25.5343 176.901 25.5343H176.443V26.9028Z" fill="#1C1A1A"/>
<path d="M35.3725 16.9629H16.4365L25.8693 0.180176L35.3725 16.9629Z" fill="#00B2E6"/>
<path d="M36.9573 19.844H14.8184L16.4374 16.9629H35.3734L36.9573 19.844Z" fill="#006FB8"/>
<path d="M0 0.540039H7.18019C8.86965 0.540039 10.1719 0.972212 11.0519 1.80054C11.9318 2.62887 12.3894 3.85336 12.3894 5.40198C12.3894 6.33836 12.2134 7.13067 11.8966 7.77893C11.5446 8.39118 11.0519 8.93139 10.3479 9.36357C11.0519 9.50763 11.615 9.6877 12.1078 9.97581C12.6005 10.2639 12.9877 10.5881 13.2693 10.9842C13.5861 11.3804 13.7972 11.8486 13.9028 12.3528C14.0436 12.857 14.114 13.3972 14.114 13.9734C14.114 14.8738 13.9732 15.6661 13.6564 16.3504C13.3397 17.0346 12.9173 17.6109 12.3894 18.0791C11.8262 18.5472 11.1575 18.9074 10.3831 19.1235C9.60879 19.3756 8.72886 19.4836 7.74334 19.4836H0V0.540039ZM4.82199 7.95901H5.70192C7.21539 7.95901 7.95453 7.34676 7.95453 6.12227C7.95453 4.89778 7.21539 4.28554 5.70192 4.28554H4.82199V7.95901ZM4.82199 15.6661H5.8779C7.0746 15.6661 7.95453 15.522 8.48248 15.1979C9.01044 14.8738 9.25682 14.3696 9.25682 13.6493C9.25682 12.929 9.01044 12.4248 8.48248 12.1007C7.95453 11.7765 7.0746 11.6325 5.8779 11.6325H4.82199V15.6661Z" fill="#1C1A1A"/>
<path d="M42.3424 0.540039V10.8402C42.3424 11.3804 42.3776 11.9566 42.4128 12.5328C42.448 13.1091 42.5888 13.6493 42.7648 14.1175C42.976 14.5857 43.2927 14.9818 43.7503 15.2699C44.2079 15.558 44.8062 15.7021 45.6157 15.7021C46.4253 15.7021 47.0236 15.558 47.4812 15.2699C47.9035 14.9818 48.2203 14.5857 48.4667 14.1175C48.6779 13.6493 48.8187 13.1091 48.8539 12.5328C48.8891 11.9566 48.9243 11.3804 48.9243 10.8402V0.540039H53.7111V11.5244C53.7111 14.4776 53.0423 16.6385 51.74 17.971C50.4377 19.3396 48.3963 19.9878 45.6509 19.9878C42.9056 19.9878 40.8993 19.3035 39.5619 17.971C38.2244 16.6025 37.5908 14.4776 37.5908 11.5244V0.540039H42.3424Z" fill="#1C1A1A"/>
<path d="M74.3008 10.012C74.3008 8.60744 74.5472 7.31092 75.0751 6.08643C75.5679 4.86194 76.2718 3.81753 77.1869 2.91717C78.1021 2.01681 79.158 1.29652 80.4251 0.792317C81.657 0.252101 83.0296 0 84.5431 0C86.0214 0 87.3941 0.252101 88.6612 0.756303C89.9283 1.2605 91.0194 1.98079 91.8993 2.88115C92.8144 3.78151 93.5184 4.86194 94.0111 6.05042C94.5039 7.27491 94.7854 8.57143 94.7854 9.97599C94.7854 11.3806 94.5391 12.6771 94.0111 13.9016C93.5184 15.1261 92.7792 16.1705 91.8993 17.0708C90.9842 17.9712 89.8931 18.6915 88.6612 19.1957C87.3941 19.6999 86.0214 19.952 84.5431 19.952C83.0296 19.952 81.657 19.6999 80.3899 19.1957C79.1228 18.6915 78.0669 17.9712 77.1517 17.0708C76.2366 16.1705 75.5327 15.09 75.0399 13.9016C74.5472 12.7131 74.3008 11.4166 74.3008 10.012ZM79.334 10.012C79.334 10.7683 79.4747 11.4526 79.7563 12.1008C80.0379 12.7491 80.4251 13.2893 80.8826 13.7575C81.3402 14.2257 81.9033 14.5858 82.5369 14.8379C83.1704 15.09 83.8392 15.2341 84.5431 15.2341C85.2471 15.2341 85.9158 15.09 86.5493 14.8379C87.1829 14.5858 87.746 14.2257 88.2036 13.7575C88.6964 13.2893 89.0835 12.7491 89.3299 12.1008C89.6115 11.4526 89.7523 10.7683 89.7523 10.012C89.7523 9.2557 89.6115 8.57143 89.3299 7.92317C89.0483 7.27491 88.6612 6.73469 88.2036 6.26651C87.7108 5.79832 87.1477 5.43818 86.5493 5.18607C85.9158 4.93397 85.2471 4.78992 84.5431 4.78992C83.8392 4.78992 83.1704 4.93397 82.5369 5.18607C81.9033 5.43818 81.3402 5.79832 80.8826 6.26651C80.4251 6.73469 80.0379 7.27491 79.7563 7.92317C79.4747 8.53541 79.334 9.2557 79.334 10.012Z" fill="#1C1A1A"/>
<path d="M97.8477 19.4836V0.540039H102.634L111.539 12.1007V0.540039H116.326V19.4836H111.539L102.634 7.88698V19.4836H97.8477Z" fill="#1C1A1A"/>
<path d="M130.37 5.36603C129.842 4.93386 129.314 4.60973 128.786 4.39364C128.258 4.17755 127.766 4.06951 127.273 4.06951C126.639 4.06951 126.147 4.21357 125.759 4.5377C125.372 4.82581 125.161 5.22197 125.161 5.72617C125.161 6.0503 125.267 6.33842 125.443 6.5545C125.654 6.77059 125.9 6.95066 126.217 7.13073C126.534 7.27479 126.886 7.41885 127.308 7.56291C127.695 7.67095 128.118 7.81501 128.505 7.92305C130.089 8.46327 131.215 9.18355 131.954 10.0839C132.693 10.9843 133.045 12.1367 133.045 13.5773C133.045 14.5497 132.869 15.414 132.552 16.2064C132.236 16.9987 131.778 17.683 131.145 18.2232C130.546 18.7994 129.772 19.2316 128.892 19.5197C128.012 19.8438 126.991 19.9879 125.865 19.9879C123.507 19.9879 121.36 19.2676 119.354 17.863L121.43 13.9014C122.134 14.5497 122.873 15.0539 123.577 15.342C124.281 15.6661 124.985 15.8102 125.654 15.8102C126.428 15.8102 127.026 15.6301 127.414 15.27C127.801 14.9098 127.977 14.4777 127.977 14.0095C127.977 13.7214 127.942 13.4693 127.836 13.2532C127.73 13.0371 127.59 12.857 127.343 12.677C127.097 12.4969 126.815 12.3528 126.463 12.1727C126.111 12.0287 125.654 11.8486 125.126 11.6685C124.492 11.4525 123.894 11.2364 123.296 11.0203C122.697 10.7682 122.169 10.4441 121.712 10.0479C121.254 9.65174 120.867 9.14754 120.585 8.5353C120.304 7.92305 120.163 7.16675 120.163 6.19436C120.163 5.25799 120.304 4.39364 120.621 3.63734C120.937 2.88103 121.36 2.23277 121.888 1.69256C122.451 1.15234 123.12 0.72017 123.894 0.432054C124.703 0.143939 125.583 -0.0361328 126.569 -0.0361328C127.484 -0.0361328 128.434 0.107925 129.455 0.360026C130.441 0.612126 131.426 1.00828 132.341 1.51249L130.37 5.36603Z" fill="#1C1A1A"/>
<path d="M140.858 0.540039V10.8402C140.858 11.3804 140.893 11.9566 140.928 12.5328C140.964 13.1091 141.104 13.6493 141.28 14.1175C141.492 14.5857 141.808 14.9818 142.266 15.2699C142.723 15.558 143.322 15.7021 144.131 15.7021C144.941 15.7021 145.539 15.558 145.997 15.2699C146.419 14.9818 146.736 14.5857 146.982 14.1175C147.194 13.6493 147.334 13.1091 147.369 12.5328C147.405 11.9566 147.44 11.3804 147.44 10.8402V0.540039H152.227V11.5244C152.227 14.4776 151.558 16.6385 150.256 17.971C148.953 19.3396 146.912 19.9878 144.167 19.9878C141.421 19.9878 139.415 19.3035 138.077 17.971C136.74 16.6025 136.106 14.4776 136.106 11.5244V0.540039H140.858Z" fill="#1C1A1A"/>
<path d="M160.885 0.540039V15.3059H166.658V19.4836H156.063V0.540039H160.885Z" fill="#1C1A1A"/>
<path d="M175.175 4.6817V19.4836H170.353V4.6817H166.411V0.540039H179.117V4.6817H175.175Z" fill="#1C1A1A"/>
</g>
<defs>
<clipPath id="clip0_54_21">
<rect width="179.118" height="30" fill="white"/>
</clipPath>
</defs>
</svg>
