<svg width="180" height="30" viewBox="0 0 180 30" fill="none" xmlns="http://www.w3.org/2000/svg">
<path d="M65.7832 20.0238H65.0089C64.6217 19.9878 64.1993 19.9518 63.8122 19.8798C61.4892 19.4476 59.5533 18.3312 58.0046 16.4584C56.7728 14.9818 56.0336 13.2531 55.7872 11.3084C55.752 10.9122 55.7168 10.516 55.6816 10.1199V9.9038C55.6816 9.86778 55.6816 9.79575 55.7168 9.75974C55.752 9.32757 55.752 8.93141 55.8224 8.49923C56.1392 6.30235 57.0895 4.35758 58.6734 2.80896C60.926 0.612078 63.6362 -0.288282 66.7335 0.107876C69.0917 0.395991 71.0275 1.51244 72.6466 3.27714C72.9634 3.63729 73.2802 4.06946 73.5969 4.46562C72.2946 5.40199 71.0275 6.30235 69.7253 7.23873C69.6901 7.1667 69.6549 7.13069 69.6197 7.05866C68.423 5.22192 66.1704 4.35758 64.1641 4.96982C62.2635 5.51004 61.0668 6.80656 60.6092 8.75133C60.1517 10.7321 60.6092 12.4968 62.0875 13.9014C64.1289 15.8822 67.4023 15.7021 69.2677 13.5413C69.4437 13.3252 69.6197 13.0731 69.8308 12.857C71.0979 13.7573 72.3298 14.6577 73.5969 15.5581C73.1746 16.2063 72.717 16.7465 72.189 17.2867C70.746 18.6913 69.0213 19.5917 67.0503 19.9158C66.5575 19.9518 66.1704 19.9878 65.7832 20.0238Z" fill="white"/>
<path d="M154.127 26.8308H156.873C156.873 27.1189 156.873 27.371 156.837 27.6231C156.802 27.8752 156.767 28.0913 156.697 28.2714C156.591 28.5595 156.45 28.8116 156.31 29.0277C156.134 29.2438 155.922 29.4239 155.711 29.5679C155.465 29.712 155.218 29.82 154.972 29.8921C154.69 29.9641 154.409 30.0001 154.092 30.0001C153.67 30.0001 153.283 29.9281 152.966 29.784C152.614 29.64 152.332 29.4599 152.086 29.2078C151.839 28.9557 151.663 28.6316 151.523 28.3074C151.382 27.9473 151.312 27.5511 151.312 27.1189C151.312 26.6868 151.382 26.2906 151.523 25.9305C151.663 25.5703 151.839 25.2822 152.086 25.0301C152.332 24.778 152.649 24.5979 152.966 24.4539C153.318 24.3098 153.705 24.2378 154.127 24.2378C154.69 24.2378 155.183 24.3458 155.606 24.5979C156.028 24.85 156.345 25.2102 156.591 25.7504L155.289 26.3266C155.183 26.0385 155.007 25.8224 154.796 25.6784C154.585 25.5343 154.374 25.4983 154.127 25.4983C153.916 25.4983 153.74 25.5343 153.564 25.6063C153.388 25.6784 153.247 25.7864 153.142 25.9305C153.036 26.0745 152.931 26.2546 152.86 26.4707C152.79 26.6868 152.755 26.9029 152.755 27.155C152.755 27.371 152.79 27.5871 152.86 27.8032C152.931 28.0193 153.001 28.1634 153.142 28.3074C153.283 28.4515 153.423 28.5595 153.564 28.6316C153.74 28.7036 153.951 28.7396 154.162 28.7396C154.303 28.7396 154.444 28.7396 154.55 28.7036C154.69 28.6676 154.796 28.6316 154.902 28.5595C155.007 28.4875 155.078 28.4155 155.148 28.2714C155.218 28.1634 155.254 28.0193 155.289 27.8753H154.162V26.8308H154.127Z" fill="white"/>
<path d="M162.223 29.8922H160.498L159.161 27.8033V29.8922H157.788V24.418H159.935C160.217 24.418 160.498 24.454 160.709 24.562C160.921 24.6341 161.132 24.7781 161.273 24.9222C161.413 25.0662 161.519 25.2463 161.589 25.4624C161.66 25.6785 161.695 25.8946 161.695 26.1106C161.695 26.5428 161.589 26.8669 161.413 27.119C161.202 27.3711 160.921 27.5512 160.533 27.6593L162.223 29.8922ZM159.161 26.8669H159.407C159.689 26.8669 159.9 26.7949 160.041 26.6869C160.181 26.5788 160.252 26.3988 160.252 26.1827C160.252 25.9666 160.181 25.7865 160.041 25.6785C159.9 25.5704 159.689 25.4984 159.407 25.4984H159.161V26.8669Z" fill="white"/>
<path d="M162.47 27.1551C162.47 26.7589 162.54 26.3628 162.681 26.0026C162.822 25.6425 163.033 25.3544 163.279 25.1023C163.526 24.8502 163.842 24.6341 164.194 24.49C164.546 24.346 164.969 24.2739 165.391 24.2739C165.813 24.2739 166.236 24.346 166.588 24.49C166.94 24.6341 167.257 24.8502 167.538 25.1023C167.784 25.3544 167.996 25.6785 168.136 26.0026C168.277 26.3628 168.348 26.7229 168.348 27.1551C168.348 27.5512 168.277 27.9474 168.136 28.3075C167.996 28.6677 167.784 28.9558 167.538 29.2079C167.292 29.46 166.975 29.6761 166.588 29.8201C166.236 29.9642 165.813 30.0362 165.391 30.0362C164.969 30.0362 164.546 29.9642 164.194 29.8201C163.842 29.6761 163.526 29.46 163.279 29.2079C163.033 28.9558 162.822 28.6317 162.681 28.3075C162.54 27.9474 162.47 27.5512 162.47 27.1551ZM163.913 27.1551C163.913 27.3712 163.948 27.5873 164.018 27.7673C164.089 27.9474 164.194 28.1275 164.335 28.2355C164.476 28.3796 164.617 28.4876 164.828 28.5596C165.004 28.6317 165.215 28.6677 165.391 28.6677C165.602 28.6677 165.778 28.6317 165.954 28.5596C166.13 28.4876 166.306 28.3796 166.447 28.2355C166.588 28.0915 166.693 27.9474 166.764 27.7673C166.834 27.5873 166.869 27.3712 166.869 27.1551C166.869 26.939 166.834 26.7229 166.764 26.5428C166.693 26.3628 166.588 26.1827 166.447 26.0746C166.306 25.9306 166.13 25.8225 165.954 25.7505C165.778 25.6785 165.567 25.6425 165.391 25.6425C165.18 25.6425 165.004 25.6785 164.828 25.7505C164.652 25.8225 164.476 25.9306 164.335 26.0746C164.194 26.2187 164.089 26.3628 164.018 26.5428C163.948 26.7589 163.913 26.939 163.913 27.1551Z" fill="white"/>
<path d="M170.671 24.418V27.4072C170.671 27.5512 170.671 27.7313 170.671 27.9114C170.671 28.0914 170.706 28.2355 170.776 28.3796C170.847 28.5236 170.917 28.6317 171.058 28.7037C171.199 28.7757 171.375 28.8477 171.586 28.8477C171.832 28.8477 172.008 28.8117 172.114 28.7037C172.254 28.6317 172.325 28.5236 172.395 28.3796C172.466 28.2355 172.501 28.0914 172.501 27.9114C172.501 27.7313 172.536 27.5872 172.536 27.4072V24.418H173.909V27.5872C173.909 28.4516 173.733 29.0638 173.346 29.46C172.958 29.8561 172.395 30.0362 171.586 30.0362C170.811 30.0362 170.213 29.8561 169.826 29.46C169.439 29.0638 169.263 28.4516 169.263 27.5872V24.418H170.671Z" fill="white"/>
<path d="M176.443 29.8922H175.07V24.418H177.288C177.886 24.418 178.344 24.562 178.66 24.8862C178.977 25.2103 179.153 25.6425 179.153 26.2187C179.153 26.7949 178.977 27.2631 178.66 27.5512C178.344 27.8754 177.886 28.0194 177.288 28.0194H176.478V29.8922H176.443ZM176.443 26.939H176.901C177.393 26.939 177.675 26.7229 177.675 26.2547C177.675 25.7865 177.429 25.5704 176.901 25.5704H176.443V26.939Z" fill="white"/>
<path d="M35.3725 16.999H16.4365L25.8693 0.216309L35.3725 16.999Z" fill="#00B2E6"/>
<path d="M36.9573 19.8802H14.8184L16.4374 16.999H35.3734L36.9573 19.8802Z" fill="#006FB8"/>
<path d="M0 0.576172H7.18019C8.86965 0.576172 10.1719 1.00834 11.0519 1.83668C11.9318 2.66501 12.3894 3.8895 12.3894 5.43812C12.3894 6.37449 12.2134 7.16681 11.8966 7.81507C11.5446 8.42731 11.0519 8.96753 10.3479 9.3997C11.0519 9.54376 11.615 9.72383 12.1078 10.0119C12.6005 10.3001 12.9877 10.6242 13.2693 11.0203C13.5861 11.4165 13.7972 11.8847 13.9028 12.3889C14.0436 12.8931 14.114 13.4333 14.114 14.0095C14.114 14.9099 13.9732 15.7022 13.6564 16.3865C13.3397 17.0708 12.9173 17.647 12.3894 18.1152C11.8262 18.5834 11.1575 18.9435 10.3831 19.1596C9.60879 19.4117 8.72886 19.5197 7.74334 19.5197H0V0.576172ZM4.82199 7.99514H5.70192C7.21539 7.99514 7.95453 7.38289 7.95453 6.1584C7.95453 4.93391 7.21539 4.32167 5.70192 4.32167H4.82199V7.99514ZM4.82199 15.7022H5.8779C7.0746 15.7022 7.95453 15.5582 8.48248 15.234C9.01044 14.9099 9.25682 14.4057 9.25682 13.6854C9.25682 12.9651 9.01044 12.4609 8.48248 12.1368C7.95453 11.8127 7.0746 11.6686 5.8779 11.6686H4.82199V15.7022Z" fill="white"/>
<path d="M42.3424 0.576172V10.8763C42.3424 11.4165 42.3776 11.9927 42.4128 12.569C42.448 13.1452 42.5888 13.6854 42.7648 14.1536C42.976 14.6218 43.2927 15.0179 43.7503 15.3061C44.2079 15.5942 44.8062 15.7382 45.6157 15.7382C46.4253 15.7382 47.0236 15.5942 47.4812 15.3061C47.9035 15.0179 48.2203 14.6218 48.4667 14.1536C48.6779 13.6854 48.8187 13.1452 48.8539 12.569C48.8891 11.9927 48.9243 11.4165 48.9243 10.8763V0.576172H53.7111V11.5606C53.7111 14.5137 53.0423 16.6746 51.74 18.0071C50.4377 19.3757 48.3963 20.0239 45.6509 20.0239C42.9056 20.0239 40.8993 19.3397 39.5619 18.0071C38.2244 16.6386 37.5908 14.5137 37.5908 11.5606V0.576172H42.3424Z" fill="white"/>
<path d="M74.3008 10.0481C74.3008 8.64358 74.5472 7.34706 75.0751 6.12257C75.5679 4.89808 76.2718 3.85366 77.1869 2.9533C78.1021 2.05294 79.158 1.33265 80.4251 0.82845C81.657 0.288234 83.0296 0.0361328 84.5431 0.0361328C86.0214 0.0361328 87.3941 0.288234 88.6612 0.792435C89.9283 1.29664 91.0194 2.01693 91.8993 2.91729C92.8144 3.81765 93.5184 4.89808 94.0111 6.08655C94.5039 7.31104 94.7854 8.60756 94.7854 10.0121C94.7854 11.4167 94.5391 12.7132 94.0111 13.9377C93.5184 15.1622 92.7792 16.2066 91.8993 17.107C90.9842 18.0073 89.8931 18.7276 88.6612 19.2318C87.3941 19.736 86.0214 19.9881 84.5431 19.9881C83.0296 19.9881 81.657 19.736 80.3899 19.2318C79.1228 18.7276 78.0669 18.0073 77.1517 17.107C76.2366 16.2066 75.5327 15.1262 75.0399 13.9377C74.5472 12.7492 74.3008 11.4527 74.3008 10.0481ZM79.334 10.0481C79.334 10.8044 79.4747 11.4887 79.7563 12.137C80.0379 12.7852 80.4251 13.3255 80.8826 13.7936C81.3402 14.2618 81.9033 14.622 82.5369 14.8741C83.1704 15.1262 83.8392 15.2702 84.5431 15.2702C85.2471 15.2702 85.9158 15.1262 86.5493 14.8741C87.1829 14.622 87.746 14.2618 88.2036 13.7936C88.6964 13.3255 89.0835 12.7852 89.3299 12.137C89.6115 11.4887 89.7523 10.8044 89.7523 10.0481C89.7523 9.29184 89.6115 8.60756 89.3299 7.9593C89.0483 7.31104 88.6612 6.77083 88.2036 6.30264C87.7108 5.83445 87.1477 5.47431 86.5493 5.22221C85.9158 4.97011 85.2471 4.82605 84.5431 4.82605C83.8392 4.82605 83.1704 4.97011 82.5369 5.22221C81.9033 5.47431 81.3402 5.83445 80.8826 6.30264C80.4251 6.77083 80.0379 7.31104 79.7563 7.9593C79.4747 8.57155 79.334 9.29184 79.334 10.0481Z" fill="white"/>
<path d="M97.8477 19.5197V0.576172H102.634L111.539 12.1368V0.576172H116.326V19.5197H111.539L102.634 7.92311V19.5197H97.8477Z" fill="white"/>
<path d="M130.37 5.40216C129.842 4.96999 129.314 4.64586 128.786 4.42977C128.258 4.21369 127.766 4.10564 127.273 4.10564C126.639 4.10564 126.147 4.2497 125.759 4.57383C125.372 4.86194 125.161 5.2581 125.161 5.7623C125.161 6.08643 125.267 6.37455 125.443 6.59064C125.654 6.80672 125.9 6.98679 126.217 7.16687C126.534 7.31092 126.886 7.45498 127.308 7.59904C127.695 7.70708 128.118 7.85114 128.505 7.95918C130.089 8.4994 131.215 9.21969 131.954 10.12C132.693 11.0204 133.045 12.1729 133.045 13.6134C133.045 14.5858 132.869 15.4502 132.552 16.2425C132.236 17.0348 131.778 17.7191 131.145 18.2593C130.546 18.8355 129.772 19.2677 128.892 19.5558C128.012 19.88 126.991 20.024 125.865 20.024C123.507 20.024 121.36 19.3037 119.354 17.8992L121.43 13.9376C122.134 14.5858 122.873 15.09 123.577 15.3781C124.281 15.7023 124.985 15.8463 125.654 15.8463C126.428 15.8463 127.026 15.6663 127.414 15.3061C127.801 14.946 127.977 14.5138 127.977 14.0456C127.977 13.7575 127.942 13.5054 127.836 13.2893C127.73 13.0732 127.59 12.8932 127.343 12.7131C127.097 12.533 126.815 12.389 126.463 12.2089C126.111 12.0648 125.654 11.8848 125.126 11.7047C124.492 11.4886 123.894 11.2725 123.296 11.0564C122.697 10.8043 122.169 10.4802 121.712 10.084C121.254 9.68787 120.867 9.18367 120.585 8.57143C120.304 7.95918 120.163 7.20288 120.163 6.23049C120.163 5.29412 120.304 4.42977 120.621 3.67347C120.937 2.91717 121.36 2.26891 121.888 1.72869C122.451 1.18848 123.12 0.756303 123.894 0.468187C124.703 0.180072 125.583 0 126.569 0C127.484 0 128.434 0.144058 129.455 0.396158C130.441 0.648259 131.426 1.04442 132.341 1.54862L130.37 5.40216Z" fill="white"/>
<path d="M140.858 0.576172V10.8763C140.858 11.4165 140.893 11.9927 140.928 12.569C140.964 13.1452 141.104 13.6854 141.28 14.1536C141.492 14.6218 141.808 15.0179 142.266 15.3061C142.723 15.5942 143.322 15.7382 144.131 15.7382C144.941 15.7382 145.539 15.5942 145.997 15.3061C146.419 15.0179 146.736 14.6218 146.982 14.1536C147.194 13.6854 147.334 13.1452 147.369 12.569C147.405 11.9927 147.44 11.4165 147.44 10.8763V0.576172H152.227V11.5606C152.227 14.5137 151.558 16.6746 150.256 18.0071C148.953 19.3757 146.912 20.0239 144.167 20.0239C141.421 20.0239 139.415 19.3397 138.077 18.0071C136.74 16.6386 136.106 14.5137 136.106 11.5606V0.576172H140.858Z" fill="white"/>
<path d="M160.885 0.576172V15.3421H166.658V19.5197H156.063V0.576172H160.885Z" fill="white"/>
<path d="M175.175 4.71783V19.5197H170.353V4.71783H166.411V0.576172H179.117V4.71783H175.175Z" fill="white"/>
</svg>
